<?xml version="1.0" encoding="utf-8"?>
<svg version="1.1" id="Ebene_1" xmlns="http://www.w3.org/2000/svg" xmlns:xlink="http://www.w3.org/1999/xlink" x="0px" y="0px" viewBox="0 0 28.35 28.35" style="enable-background:new 0 0 28.35 28.35;" xml:space="preserve">
<style type="text/css">.teaser-background{fill:#AB351F;}.teaser-piece{fill:#F7F5E9;}</style>
<rect class="teaser-background" width="28.35" height="28.35"/>
<path class="teaser-piece" d="M11.8,23.24c0.38-0.65,0.15-1.08,0.04-1.5c-0.23-0.86,0.39-1.39,1.26-0.88l4.05,2.34l2.34-4.05
	c0.51-0.88-0.03-1.5-0.88-1.26c-0.42,0.11-0.84,0.33-1.5-0.04c-0.73-0.42-1.23-1.69-0.5-2.96c0.73-1.26,2.09-1.47,2.81-1.05
	c0.65,0.38,0.67,0.85,0.78,1.27c0.23,0.86,1.03,1.01,1.54,0.13l2.34-4.05l-4.05-2.34c-0.88-0.51-1.5,0.03-1.26,0.88
	c0.11,0.42,0.33,0.84-0.04,1.5c-0.42,0.73-1.69,1.23-2.96,0.5s-1.47-2.09-1.05-2.81c0.38-0.65,0.85-0.67,1.27-0.78
	c0.86-0.23,1.01-1.03,0.13-1.54l-4.05-2.34L9.74,8.31C9.23,9.18,8.43,9.03,8.2,8.17C8.09,7.75,8.07,7.28,7.42,6.9
	C6.69,6.48,5.34,6.68,4.61,7.95s-0.23,2.54,0.5,2.96c0.65,0.38,1.08,0.15,1.5,0.04c0.86-0.23,1.39,0.39,0.88,1.26l-2.34,4.05
	l4.05,2.34c0.88,0.51,0.72,1.31-0.13,1.54c-0.42,0.11-0.9,0.13-1.27,0.78c-0.42,0.73-0.22,2.08,1.05,2.81S11.38,23.97,11.8,23.24z"
	/>
</svg>
