<?xml version="1.0" encoding="utf-8"?>
<svg version="1.1" id="Ebene_1" xmlns="http://www.w3.org/2000/svg" xmlns:xlink="http://www.w3.org/1999/xlink" x="0px" y="0px" viewBox="0 0 28.35 28.35" style="enable-background:new 0 0 28.35 28.35;" xml:space="preserve">
<style type="text/css">.teaser-piece{fill:#AB351F;}</style>
<path class="teaser-piece" d="M10.78,27.13c0.54-0.93,0.22-1.54,0.06-2.14c-0.33-1.22,0.55-1.99,1.81-1.26l5.79,3.34l3.34-5.79
	c0.72-1.25-0.04-2.14-1.26-1.81c-0.6,0.16-1.2,0.48-2.14-0.06c-1.04-0.6-1.75-2.42-0.71-4.23s2.98-2.09,4.02-1.5
	c0.93,0.54,0.96,1.22,1.12,1.82c0.33,1.23,1.47,1.45,2.19,0.19l3.34-5.79l-5.79-3.34c-1.25-0.72-2.14,0.04-1.81,1.26
	c0.16,0.6,0.48,1.2-0.06,2.14c-0.6,1.04-2.42,1.75-4.23,0.71s-2.09-2.98-1.5-4.02c0.54-0.93,1.22-0.96,1.82-1.12
	c1.23-0.33,1.45-1.47,0.19-2.19L11.18,0L7.84,5.79C7.12,7.05,5.97,6.83,5.65,5.6C5.48,5,5.46,4.32,4.52,3.78
	c-1.04-0.6-2.97-0.31-4.02,1.5S0.18,8.9,1.22,9.5c0.93,0.54,1.54,0.22,2.14,0.06c1.22-0.33,1.99,0.55,1.26,1.81l-3.34,5.79
	l5.79,3.34c1.25,0.72,1.04,1.87-0.19,2.19c-0.6,0.16-1.28,0.19-1.82,1.12c-0.6,1.04-0.31,2.97,1.5,4.02
	C8.36,28.88,10.18,28.16,10.78,27.13z"/>
</svg>
